<svg id="Capa_1" data-name="Capa 1" xmlns="http://www.w3.org/2000/svg" viewBox="0 0 209.69 172.7"><defs><style>.cls-1{fill:#fff;}</style></defs><title>Isotipo 2</title><path class="cls-1" d="M7095.18,7200.15a86.44,86.44,0,0,0,86.34,86.34A85.41,85.41,0,0,0,7235,7267.9c.15-.12.3-.24.44-.37l67-61.91a7.45,7.45,0,0,0-5.05-12.92h-74.15a7.45,7.45,0,1,0,0,14.9h55.1l-52.78,48.75a70.63,70.63,0,0,1-44.06,15.24,71.45,71.45,0,0,1,0-142.89,70.65,70.65,0,0,1,44.24,15.38,7.44,7.44,0,0,0,10.46-1.22,7.47,7.47,0,0,0-1.22-10.47,85.41,85.41,0,0,0-53.48-18.59,86.44,86.44,0,0,0-86.34,86.35" transform="translate(-7095.18 -7113.8)"/><path class="cls-1" d="M7245.18,7154.19a7.28,7.28,0,0,0-3,4.71,7.4,7.4,0,0,0,1.08,5.54,77.49,77.49,0,0,1,4.19,8.43c.82,1.88,1.57,3.42,3.25,4.39a7.26,7.26,0,0,0,3.66,1,7.5,7.5,0,0,0,1.87-.24,7.29,7.29,0,0,0,5.18-8.92,42.91,42.91,0,0,0-1.57-4.73c0-.13-.09-.26-.14-.39-.11-.28-.24-.55-.36-.83l-.26-.58a42,42,0,0,0-3.74-6.58,7.28,7.28,0,0,0-4.71-3,8,8,0,0,0-1.28-.11,7.24,7.24,0,0,0-4.17,1.32" transform="translate(-7095.18 -7113.8)"/><path class="cls-1" d="M7182,7168.21a32,32,0,0,1,31.11,24.5h-62.22a32,32,0,0,1,31.11-24.5m-46.9,32a46.87,46.87,0,0,0,79.18,34,7.47,7.47,0,0,0,1.16-10.48,7.51,7.51,0,0,0-10.39-1.33,32,32,0,0,1-54.18-14.76h70.57a7.44,7.44,0,0,0,7.43-6.79c0-.23,0-.45,0-.68a46.9,46.9,0,0,0-93.8.07" transform="translate(-7095.18 -7113.8)"/></svg>