<svg id="Capa_1" data-name="Capa 1" xmlns="http://www.w3.org/2000/svg" xmlns:xlink="http://www.w3.org/1999/xlink" viewBox="0 0 208.83 171.49"><defs><style>.cls-1{fill:none;}.cls-2{clip-path:url(#clip-path);}.cls-3{fill:url(#Degradado_sin_nombre_6);}.cls-4{clip-path:url(#clip-path-2);}.cls-5{fill:url(#Degradado_sin_nombre_6-2);}.cls-6{clip-path:url(#clip-path-3);}.cls-7{fill:url(#Degradado_sin_nombre_6-3);}</style><clipPath id="clip-path" transform="translate(-7096.86 -7114)"><path class="cls-1" d="M7096.86,7199.75a85.84,85.84,0,0,0,85.75,85.74,84.79,84.79,0,0,0,53.1-18.46l.43-.37,66.56-61.48a7.4,7.4,0,0,0-5-12.83h-73.63a7.4,7.4,0,1,0,0,14.79h54.72l-52.41,48.42a70.17,70.17,0,0,1-43.75,15.14,70.95,70.95,0,0,1,0-141.9,70.13,70.13,0,0,1,43.92,15.27,7.4,7.4,0,0,0,9.18-11.6,84.8,84.8,0,0,0-53.1-18.47,85.84,85.84,0,0,0-85.75,85.75"/></clipPath><linearGradient id="Degradado_sin_nombre_6" x1="6718.35" y1="7306.5" x2="6719.28" y2="7306.5" gradientTransform="matrix(426.65, 0, 0, -426.65, -2866327.2, 3117374.38)" gradientUnits="userSpaceOnUse"><stop offset="0" stop-color="#1198d5"/><stop offset="0.39" stop-color="#099db5"/><stop offset="0.77" stop-color="#02a19c"/><stop offset="1" stop-color="#00a393"/></linearGradient><clipPath id="clip-path-2" transform="translate(-7096.86 -7114)"><path class="cls-1" d="M7245.82,7154.11a7.23,7.23,0,0,0-3,4.67,7.32,7.32,0,0,0,1.07,5.5,79.28,79.28,0,0,1,4.17,8.38c.8,1.87,1.55,3.39,3.22,4.36a7.24,7.24,0,0,0,3.63,1,7.36,7.36,0,0,0,1.86-.24,7.24,7.24,0,0,0,5.15-8.86,40.34,40.34,0,0,0-1.57-4.69c0-.13-.08-.26-.13-.38l-.36-.83-.26-.58a40.68,40.68,0,0,0-3.72-6.53,7.18,7.18,0,0,0-4.67-3,7.78,7.78,0,0,0-1.27-.11,7.21,7.21,0,0,0-4.14,1.31"/></clipPath><linearGradient id="Degradado_sin_nombre_6-2" x1="6718.35" y1="7306.5" x2="6719.28" y2="7306.5" gradientTransform="matrix(426.65, 0, 0, -426.65, -2866327.2, 3117337.47)" xlink:href="#Degradado_sin_nombre_6"/><clipPath id="clip-path-3" transform="translate(-7096.86 -7114)"><path class="cls-1" d="M7183.06,7168a31.79,31.79,0,0,1,30.89,24.33h-61.78a31.78,31.78,0,0,1,30.89-24.33m-46.57,31.78a46.53,46.53,0,0,0,78.62,33.73,7.44,7.44,0,0,0-9.16-11.73,31.75,31.75,0,0,1-53.81-14.65h70.09a7.37,7.37,0,0,0,7.37-6.74c0-.23,0-.45,0-.68a46.57,46.57,0,0,0-93.14.07"/></clipPath><linearGradient id="Degradado_sin_nombre_6-3" x1="6718.35" y1="7306.5" x2="6719.28" y2="7306.5" gradientTransform="matrix(426.65, 0, 0, -426.65, -2866327.2, 3117374.44)" xlink:href="#Degradado_sin_nombre_6"/></defs><title>Isotipo_1</title><g class="cls-2"><rect class="cls-3" width="208.83" height="171.49"/></g><g class="cls-4"><rect class="cls-5" x="145.64" y="38.8" width="19.93" height="25.2"/></g><g class="cls-6"><rect class="cls-7" x="39.63" y="39.24" width="93.14" height="93.14"/></g></svg>